<svg width="18" height="15" viewBox="0 0 18 15" fill="none" xmlns="http://www.w3.org/2000/svg">
<path d="M4.50022 14.48C3.27356 14.48 2.34022 14.0133 1.70022 13.08C1.06022 12.1467 0.740222 10.8667 0.740222 9.24C0.740222 7.34667 1.20689 5.68 2.14022 4.24C3.07356 2.8 4.50022 1.61333 6.42022 0.679999L7.70022 3.24C6.50022 3.82667 5.59356 4.53333 4.98022 5.36C4.39356 6.16 4.10022 7.14667 4.10022 8.32C4.15356 8.29333 4.22022 8.28 4.30022 8.28C4.38022 8.28 4.44689 8.28 4.50022 8.28C5.35356 8.28 6.07356 8.54667 6.66022 9.08C7.27356 9.58667 7.58022 10.2933 7.58022 11.2C7.58022 12.1867 7.28689 12.9867 6.70022 13.6C6.11356 14.1867 5.38022 14.48 4.50022 14.48ZM13.9802 14.48C12.7536 14.48 11.8202 14.0133 11.1802 13.08C10.5402 12.1467 10.2202 10.8667 10.2202 9.24C10.2202 7.34667 10.6869 5.68 11.6202 4.24C12.5536 2.8 13.9802 1.61333 15.9002 0.679999L17.1802 3.24C15.9802 3.82667 15.0736 4.53333 14.4602 5.36C13.8736 6.16 13.5802 7.14667 13.5802 8.32C13.6336 8.29333 13.7002 8.28 13.7802 8.28C13.8602 8.28 13.9269 8.28 13.9802 8.28C14.8336 8.28 15.5536 8.54667 16.1402 9.08C16.7536 9.58667 17.0602 10.2933 17.0602 11.2C17.0602 12.1867 16.7669 12.9867 16.1802 13.6C15.5936 14.1867 14.8602 14.48 13.9802 14.48Z" fill="white"/>
</svg>
